<svg width="218" height="229" viewBox="0 0 218 229" fill="none" xmlns="http://www.w3.org/2000/svg">
<path d="M110.472 228.753C169.858 228.753 218 200.958 218 166.671C218 132.384 169.858 104.589 110.472 104.589C51.0858 104.589 2.94385 132.384 2.94385 166.671C2.94385 200.958 51.0858 228.753 110.472 228.753Z" fill="#F5F5F5"/>
<path d="M142.207 139.225L51.9759 191.425C49.3459 192.947 44.7519 192.756 41.7129 191.002L29.7474 184.12C26.7132 182.37 26.3803 179.716 29.0102 178.194L119.265 125.976C121.895 124.459 126.489 124.649 129.528 126.404L141.47 133.3C144.509 135.05 144.837 137.704 142.207 139.225Z" fill="#E0E0E0"/>
<path d="M174.351 203.947C189.239 203.947 201.307 196.978 201.307 188.381C201.307 179.784 189.239 172.815 174.351 172.815C159.464 172.815 147.396 179.784 147.396 188.381C147.396 196.978 159.464 203.947 174.351 203.947Z" fill="#E0E0E0"/>
<path d="M22.4901 167.18C25.8477 169.115 25.8477 172.254 22.4901 174.19C19.1325 176.125 13.7014 176.125 10.3486 174.19C6.99578 172.254 6.99578 169.115 10.3486 167.18C13.7014 165.244 19.1611 165.244 22.4901 167.18Z" fill="#E0E0E0"/>
<path d="M111.742 185.109L63.7084 212.583C61.554 213.825 57.7922 213.668 55.305 212.236L49.6551 208.969C47.1678 207.542 46.8967 205.364 49.0511 204.118L97.1082 176.649C99.2626 175.403 103.024 175.56 105.512 176.996L111.162 180.258C113.625 181.694 113.896 183.868 111.742 185.109Z" fill="#E0E0E0"/>
<path d="M109.002 196.485L89.7272 207.661C87.5728 208.902 83.811 208.745 81.3238 207.309L75.6739 204.047C73.1866 202.62 72.9155 200.442 75.0699 199.196L94.3451 188.02C96.4994 186.778 100.261 186.935 102.749 188.372L108.403 191.634C110.89 193.085 111.157 195.253 109.002 196.485Z" fill="#E0E0E0"/>
<path d="M15.8795 155.186C15.8795 155.186 22.3521 148.861 18.6664 138.269C16.6024 132.334 9.75885 128.002 5.84485 127.564C7.13338 129.098 8.16159 130.833 8.88855 132.7L13.7965 135.963L9.28327 134.536L10.2344 138.398C10.2344 138.398 14.4338 140.937 15.052 141.489L10.5293 140.305C10.5293 140.305 10.905 151.253 15.8795 155.186Z" fill="#FDC727"/>
<path opacity="0.4" d="M15.8795 155.186C15.8795 155.186 22.3521 148.861 18.6664 138.269C16.6024 132.334 9.75885 128.002 5.84485 127.564C7.13338 129.098 8.16159 130.833 8.88855 132.7L13.7965 135.963L9.28327 134.536L10.2344 138.398C10.2344 138.398 14.4338 140.937 15.052 141.489L10.5293 140.305C10.5293 140.305 10.905 151.253 15.8795 155.186Z" fill="black"/>
<path d="M15.8795 155.186C15.8795 155.186 19.2086 141.955 14.2721 134.237C14.2721 134.237 20.0837 141.047 15.8795 155.186Z" fill="white"/>
<path d="M8.47002 156.974L16.3884 156.879H16.4692L24.3924 156.974C24.3924 156.974 24.4827 166.738 21.4771 170.709C20.6448 171.764 18.6997 172.502 16.4312 172.502C14.1627 172.502 12.2081 171.76 11.3806 170.699C8.37966 166.728 8.47002 156.974 8.47002 156.974Z" fill="#37474F"/>
<path d="M8.46521 156.974C8.46521 159.352 12.032 161.254 16.4311 161.254C20.8302 161.254 24.3923 159.352 24.3923 156.974C24.3923 154.596 20.8255 152.694 16.4311 152.694C12.0368 152.694 8.46521 154.634 8.46521 156.974Z" fill="#455A64"/>
<path d="M16.4311 155.842C13.6918 155.842 11.371 156.722 10.553 157.939C10.3547 157.661 10.2438 157.33 10.2344 156.988C10.2344 155.3 13.007 153.935 16.4169 153.935C19.8268 153.935 22.5994 155.3 22.5994 156.988C22.5897 157.329 22.4806 157.66 22.2855 157.939C21.4913 156.722 19.161 155.842 16.4311 155.842Z" fill="#263238"/>
<path d="M16.4311 160.037C19.6775 160.037 22.3093 159.098 22.3093 157.939C22.3093 156.781 19.6775 155.842 16.4311 155.842C13.1847 155.842 10.553 156.781 10.553 157.939C10.553 159.098 13.1847 160.037 16.4311 160.037Z" fill="#E0E0E0"/>
<path d="M16.3313 158.467C16.3313 158.467 19.4036 158.348 22.0383 154.273C23.1226 152.589 23.6457 151.709 23.6457 151.709L19.3655 151.391L24.1594 150.192L26.4183 146.73L22.4425 146.435C22.4425 146.435 25.4054 145.394 27.5217 145.384C27.5217 145.384 31.1884 138.902 32.2775 137.979C29.5036 138.151 26.7921 138.876 24.3032 140.113C21.8144 141.349 19.5985 143.072 17.7866 145.18C11.742 152.309 15.4373 158.648 16.3313 158.467Z" fill="#FDC727"/>
<path d="M16.3314 158.467C16.3314 158.467 14.4291 146.906 26.6609 139.953C26.6609 139.953 13.9297 146.074 16.3314 158.467Z" fill="white"/>
<path d="M16.3313 158.467C16.3313 158.467 13.554 158.648 10.7956 155.219C9.65898 153.792 9.10255 153.055 9.10255 153.055L12.9072 152.366L8.47004 151.738L6.09215 148.827L9.65422 148.185C9.65422 148.185 6.88161 147.529 4.97454 147.71C4.97454 147.71 1.05578 142.207 0 141.475C2.51831 141.368 5.03242 141.768 7.39387 142.649C9.75532 143.53 11.9162 144.876 13.7489 146.606C19.8982 152.48 17.1588 158.548 16.3313 158.467Z" fill="#FDC727"/>
<path opacity="0.2" d="M16.3313 158.467C16.3313 158.467 13.554 158.648 10.7956 155.219C9.65898 153.792 9.10255 153.055 9.10255 153.055L12.9072 152.366L8.47004 151.738L6.09215 148.827L9.65422 148.185C9.65422 148.185 6.88161 147.529 4.97454 147.71C4.97454 147.71 1.05578 142.207 0 141.475C2.51831 141.368 5.03242 141.768 7.39387 142.649C9.75532 143.53 11.9162 144.876 13.7489 146.606C19.8982 152.48 17.1588 158.548 16.3313 158.467Z" fill="black"/>
<path d="M16.3313 158.467C16.3313 158.467 16.9781 147.857 5.26941 142.745C5.26941 142.745 17.3158 147.049 16.3313 158.467Z" fill="white"/>
<path d="M106.667 166.614C106.486 166.614 106.31 166.554 106.166 166.443C106.023 166.333 105.92 166.178 105.873 166.003C105.827 165.828 105.839 165.642 105.909 165.475C105.978 165.308 106.101 165.168 106.258 165.078L140.348 145.541C140.873 145.242 141.311 144.811 141.618 144.29C141.926 143.77 142.092 143.179 142.101 142.574C142.109 141.97 141.96 141.374 141.668 140.845C141.375 140.316 140.95 139.872 140.433 139.558L137.732 137.937C136.291 137.073 134.645 136.61 132.965 136.597C131.285 136.583 129.632 137.02 128.178 137.861L125.215 139.554C124.129 140.116 122.923 140.41 121.7 140.41C120.477 140.41 119.272 140.116 118.186 139.554C117.111 138.935 116.493 138.022 116.493 137.052C116.493 136.082 117.111 135.15 118.186 134.546L123.146 131.692C123.992 131.201 124.695 130.498 125.185 129.651C125.675 128.804 125.934 127.843 125.938 126.865V110.034C125.938 109.816 126.024 109.607 126.179 109.453C126.333 109.298 126.542 109.212 126.76 109.212C126.868 109.21 126.976 109.231 127.076 109.271C127.176 109.311 127.268 109.37 127.345 109.446C127.422 109.521 127.484 109.611 127.526 109.711C127.569 109.81 127.591 109.917 127.593 110.025V126.856C127.589 128.122 127.253 129.366 126.619 130.462C125.985 131.559 125.074 132.47 123.978 133.105L119.018 135.958C118.466 136.277 118.148 136.672 118.148 137.038C118.148 137.404 118.466 137.799 119.018 138.117C119.855 138.533 120.776 138.749 121.71 138.749C122.644 138.749 123.565 138.533 124.402 138.117L127.341 136.42C129.05 135.433 130.992 134.922 132.965 134.939C134.939 134.955 136.872 135.499 138.564 136.515L141.266 138.132C142.029 138.591 142.659 139.241 143.094 140.019C143.529 140.796 143.754 141.674 143.746 142.564C143.739 143.455 143.499 144.328 143.05 145.098C142.602 145.868 141.961 146.507 141.189 146.954L107.095 166.524C106.963 166.592 106.816 166.623 106.667 166.614Z" fill="#FDC727"/>
<path opacity="0.2" d="M106.667 166.614C106.486 166.614 106.31 166.554 106.166 166.443C106.023 166.333 105.92 166.178 105.873 166.003C105.827 165.828 105.839 165.642 105.909 165.475C105.978 165.308 106.101 165.168 106.258 165.078L140.348 145.541C140.873 145.242 141.311 144.811 141.618 144.29C141.926 143.77 142.092 143.179 142.101 142.574C142.109 141.97 141.96 141.374 141.668 140.845C141.375 140.316 140.95 139.872 140.433 139.558L137.732 137.937C136.291 137.073 134.645 136.61 132.965 136.597C131.285 136.583 129.632 137.02 128.178 137.861L125.215 139.554C124.129 140.116 122.923 140.41 121.7 140.41C120.477 140.41 119.272 140.116 118.186 139.554C117.111 138.935 116.493 138.022 116.493 137.052C116.493 136.082 117.111 135.15 118.186 134.546L123.146 131.692C123.992 131.201 124.695 130.498 125.185 129.651C125.675 128.804 125.934 127.843 125.938 126.865V110.034C125.938 109.816 126.024 109.607 126.179 109.453C126.333 109.298 126.542 109.212 126.76 109.212C126.868 109.21 126.976 109.231 127.076 109.271C127.176 109.311 127.268 109.37 127.345 109.446C127.422 109.521 127.484 109.611 127.526 109.711C127.569 109.81 127.591 109.917 127.593 110.025V126.856C127.589 128.122 127.253 129.366 126.619 130.462C125.985 131.559 125.074 132.47 123.978 133.105L119.018 135.958C118.466 136.277 118.148 136.672 118.148 137.038C118.148 137.404 118.466 137.799 119.018 138.117C119.855 138.533 120.776 138.749 121.71 138.749C122.644 138.749 123.565 138.533 124.402 138.117L127.341 136.42C129.05 135.433 130.992 134.922 132.965 134.939C134.939 134.955 136.872 135.499 138.564 136.515L141.266 138.132C142.029 138.591 142.659 139.241 143.094 140.019C143.529 140.796 143.754 141.674 143.746 142.564C143.739 143.455 143.499 144.328 143.05 145.098C142.602 145.868 141.961 146.507 141.189 146.954L107.095 166.524C106.963 166.592 106.816 166.623 106.667 166.614Z" fill="black"/>
<path d="M126.737 116.674C126.196 116.674 125.678 116.459 125.296 116.078C124.913 115.696 124.698 115.178 124.696 114.638V108.931H128.777V114.638C128.776 115.178 128.56 115.696 128.178 116.078C127.795 116.459 127.277 116.674 126.737 116.674Z" fill="#FDC727"/>
<path opacity="0.4" d="M126.737 116.674C126.196 116.674 125.678 116.459 125.296 116.078C124.913 115.696 124.698 115.178 124.696 114.638V108.931H128.777V114.638C128.776 115.178 128.56 115.696 128.178 116.078C127.795 116.459 127.277 116.674 126.737 116.674Z" fill="black"/>
<path d="M115.251 145.089L101.074 153.174C99.9723 153.804 98.7248 154.135 97.4553 154.135C96.1859 154.135 94.9384 153.804 93.8362 153.174L84.7527 147.943L83.7159 147.344C82.6389 146.721 81.7446 145.825 81.1227 144.748C80.5009 143.67 80.1733 142.448 80.1729 141.204V115.047L101.436 102.877V129.595C101.436 130.67 101.72 131.726 102.257 132.656C102.795 133.587 103.568 134.36 104.499 134.898L115.256 141.109C115.606 141.311 115.896 141.601 116.097 141.951C116.299 142.3 116.405 142.697 116.404 143.1C116.404 143.504 116.297 143.9 116.094 144.249C115.892 144.599 115.601 144.888 115.251 145.089Z" fill="#263238"/>
<path d="M98.045 154.087C99.1126 153.997 100.147 153.672 101.074 153.136L115.251 145.051C115.601 144.85 115.892 144.56 116.093 144.21C116.295 143.861 116.402 143.465 116.402 143.061C116.402 142.657 116.295 142.261 116.093 141.912C115.892 141.562 115.601 141.272 115.251 141.071L107.904 136.829H98.045V154.087Z" fill="#37474F"/>
<path d="M114.999 139.354L115.394 139.668C115.711 139.921 115.966 140.242 116.141 140.608C116.317 140.973 116.408 141.374 116.407 141.779V143.101H114.98L114.999 139.354Z" fill="#37474F"/>
<path d="M103.081 104.898V128.953C103.081 129.993 103.355 131.015 103.875 131.916C104.395 132.816 105.143 133.564 106.044 134.084L114.999 139.368C115.338 139.563 115.62 139.843 115.816 140.181C116.011 140.52 116.115 140.903 116.115 141.294C116.115 141.685 116.011 142.069 115.816 142.407C115.62 142.745 115.338 143.026 114.999 143.22L113.982 143.8L101.26 151.02C100.194 151.63 98.9876 151.95 97.7597 151.95C96.5318 151.95 95.3252 151.63 94.2594 151.02L85.447 145.817C84.5462 145.297 83.7982 144.549 83.2781 143.648C82.758 142.747 82.4842 141.726 82.4841 140.685V116.621L103.081 104.898Z" fill="#455A64"/>
<path d="M103.081 128.953V104.898L82.4841 116.621V140.662C82.4842 141.702 82.758 142.724 83.2781 143.624C83.7982 144.525 84.5462 145.273 85.447 145.793L105.74 133.88C104.925 133.342 104.255 132.61 103.792 131.75C103.328 130.891 103.084 129.93 103.081 128.953Z" fill="#263238"/>
<path d="M37.9035 158.562L35.5637 159.918V164.198C34.057 164.2 32.5779 163.794 31.2835 163.023L31.1027 162.914C30.5662 162.595 30.0999 162.17 29.7321 161.666C29.3643 161.162 29.1025 160.588 28.9626 159.98C28.882 159.718 28.8403 159.445 28.839 159.171V153.336L37.9035 158.562Z" fill="#263238"/>
<path d="M139.639 1.28889L139.454 1.17475C138.158 0.406026 136.68 0.000264952 135.173 7.18745e-05C134.693 -0.00343346 134.22 0.121337 133.804 0.361511L32.9528 58.3772C31.7119 59.0931 30.6815 60.1231 29.9652 61.3637C29.2488 62.6044 28.8719 64.0117 28.8723 65.4443V153.336L37.9083 158.567L133.742 103.467C134.982 102.75 136.013 101.72 136.729 100.48C137.445 99.2393 137.822 97.8321 137.822 96.3996V5.26472H141.898C141.898 4.4632 141.689 3.6755 141.293 2.97862C140.897 2.28173 140.327 1.69952 139.639 1.28889Z" fill="#37474F"/>
<path d="M29.7141 61.7823C29.1462 62.9196 28.8499 64.1731 28.8485 65.4443V153.336L37.8845 158.567L41.2754 156.608V68.9541L29.7141 61.7823Z" fill="#263238"/>
<path d="M32.9242 155.685V161.52C32.9248 161.989 33.0487 162.45 33.2835 162.856C33.5184 163.262 33.8558 163.598 34.262 163.833C34.6682 164.067 35.1289 164.19 35.5978 164.19C36.0667 164.19 36.5273 164.066 36.9333 163.832L137.818 105.811C139.058 105.095 140.088 104.065 140.805 102.824C141.521 101.584 141.898 100.177 141.898 98.7442V92.771L32.9242 155.685Z" fill="#37474F"/>
<path d="M141.898 5.03169C141.898 4.56241 141.775 4.10134 141.54 3.69483C141.306 3.28833 140.969 2.95073 140.562 2.71598C140.156 2.48123 139.695 2.35761 139.226 2.35755C138.756 2.35749 138.295 2.48099 137.889 2.71563L37.0046 60.7361C35.7638 61.452 34.7333 62.482 34.017 63.7226C33.3007 64.9632 32.9238 66.3706 32.9242 67.8032V155.69L141.898 92.771" fill="#455A64"/>
<path d="M136.053 9.07883H136.029C135.569 9.0749 135.114 9.18088 134.703 9.38796L39.8867 63.8939C38.7906 64.5267 37.8804 65.437 37.2476 66.5331C36.6148 67.6292 36.2817 68.8726 36.2818 70.1382V145.023C36.2792 145.35 36.3456 145.674 36.4768 145.974C36.6113 146.275 36.807 146.545 37.0516 146.767C37.2962 146.989 37.5842 147.157 37.8973 147.261C38.2104 147.365 38.5418 147.403 38.8704 147.372C39.199 147.341 39.5176 147.243 39.8058 147.082L134.641 92.557C135.736 91.9245 136.646 91.0151 137.279 89.9199C137.911 88.8246 138.245 87.5822 138.246 86.3174V11.4329C138.242 10.8373 138.014 10.2648 137.608 9.82888C137.202 9.39295 136.647 9.12528 136.053 9.07883Z" fill="#FDC727"/>
<path opacity="0.5" d="M136.053 9.07883H136.029C135.569 9.0749 135.114 9.18088 134.703 9.38796L39.8867 63.8939C38.7906 64.5267 37.8804 65.437 37.2476 66.5331C36.6148 67.6292 36.2817 68.8726 36.2818 70.1382V145.023C36.2792 145.35 36.3456 145.674 36.4768 145.974C36.6113 146.275 36.807 146.545 37.0516 146.767C37.2962 146.989 37.5842 147.157 37.8973 147.261C38.2104 147.365 38.5418 147.403 38.8704 147.372C39.199 147.341 39.5176 147.243 39.8058 147.082L134.641 92.557C135.736 91.9245 136.646 91.0151 137.279 89.9199C137.911 88.8246 138.245 87.5822 138.246 86.3174V11.4329C138.242 10.8373 138.014 10.2648 137.608 9.82888C137.202 9.39295 136.647 9.12528 136.053 9.07883Z" fill="white"/>
<path d="M46.4021 65.8533L137.104 13.4827C138.146 12.8787 139.078 12.9263 139.744 13.4827L142.882 15.6513L140.742 18.3003V91.4441C140.742 94.1264 139.111 97.2367 137.104 98.3971L47.2961 150.235L47.1297 153.089L43.8006 150.82C43.1396 150.321 42.7354 149.346 42.7354 148.005V72.8063C42.7639 70.124 44.3904 67.0137 46.4021 65.8533Z" fill="#FDC727"/>
<path opacity="0.2" d="M46.4021 65.8533L137.104 13.4827C138.146 12.8787 139.078 12.9263 139.744 13.4827L142.882 15.6513L140.742 18.3003V91.4441C140.742 94.1264 139.111 97.2367 137.104 98.3971L47.2961 150.235L47.1297 153.089L43.8006 150.82C43.1396 150.321 42.7354 149.346 42.7354 148.005V72.8063C42.7639 70.124 44.3904 67.0137 46.4021 65.8533Z" fill="white"/>
<path d="M45.8552 150.145V74.9321C45.8925 73.4119 46.3112 71.9254 47.0727 70.6091L43.834 68.7496C43.1626 69.9986 42.796 71.3886 42.7639 72.8062V148.019C42.7639 149.36 43.1682 150.335 43.8292 150.834L46.8777 152.922C46.2689 152.418 45.8552 151.457 45.8552 150.145Z" fill="#FDC727"/>
<path opacity="0.3" d="M47.0869 153.069L47.1392 153.103C47.1206 153.094 47.1031 153.082 47.0869 153.069Z" fill="#FDC727"/>
<path d="M49.4934 152.898L140.2 100.523C142.212 99.3625 143.843 96.2427 143.843 93.5747V18.3574C143.843 15.6799 142.212 14.4481 140.2 15.6085L49.4934 67.9791C47.4817 69.1396 45.8552 72.2593 45.8552 74.9321V150.145C45.8552 152.827 47.4817 154.059 49.4934 152.898Z" fill="#FDC727"/>
<path d="M49.4934 152.898L140.2 100.523C142.212 99.3625 143.843 96.2427 143.843 93.5747V18.3574C143.843 15.6799 142.212 14.4481 140.2 15.6085L49.4934 67.9791C47.4817 69.1396 45.8552 72.2593 45.8552 74.9321V150.145C45.8552 152.827 47.4817 154.059 49.4934 152.898Z" fill="#FDC727"/>
<path opacity="0.7" d="M49.4934 152.898L140.2 100.523C142.212 99.3625 143.843 96.2427 143.843 93.5747V18.3574C143.843 15.6799 142.212 14.4481 140.2 15.6085L49.4934 67.9791C47.4817 69.1396 45.8552 72.2593 45.8552 74.9321V150.145C45.8552 152.827 47.4817 154.059 49.4934 152.898Z" fill="white"/>
<path d="M49.4933 67.9791L140.2 15.6085C142.212 14.4481 143.843 15.6799 143.843 18.3574V22.0336L45.8742 78.6273V74.9511C45.8552 72.2498 47.4816 69.1396 49.4933 67.9791Z" fill="#FDC727"/>
<path opacity="0.5" d="M49.4933 67.9791L140.2 15.6085C142.212 14.4481 143.843 15.6799 143.843 18.3574V22.0336L45.8742 78.6273V74.9511C45.8552 72.2498 47.4816 69.1396 49.4933 67.9791Z" fill="white"/>
<path d="M141.646 15.4992C142.783 15.4992 143.515 16.6215 143.515 18.3526V93.5747C143.515 96.1429 141.955 99.1342 140.039 100.233L49.3269 152.613C48.9427 152.855 48.5014 152.991 48.0476 153.008C46.911 153.008 46.1786 151.885 46.1786 150.154V74.9321C46.1786 72.3592 47.7385 69.3678 49.6551 68.274L140.367 15.8891C140.751 15.6485 141.193 15.5139 141.646 15.4992ZM141.646 15.171C141.14 15.1895 140.648 15.3404 140.219 15.6086L49.4934 67.9792C47.4817 69.1396 45.8505 72.2594 45.8505 74.9321V150.145C45.8505 152.142 46.7541 153.336 48.0476 153.336C48.5529 153.315 49.0443 153.164 49.4744 152.898L140.2 100.523C142.212 99.3625 143.843 96.2427 143.843 93.5747V18.3574C143.843 16.3647 142.94 15.171 141.646 15.171Z" fill="#FDC727"/>
<path d="M53.5738 70.2667C53.5517 70.7424 53.4169 71.2061 53.1804 71.6196C52.9439 72.033 52.6126 72.3843 52.2137 72.6446C51.4623 73.0773 50.8488 72.7254 50.8488 71.8598C50.8718 71.3837 51.0075 70.9199 51.2448 70.5065C51.4821 70.0931 51.8141 69.742 52.2137 69.482C52.9651 69.0302 53.5738 69.4011 53.5738 70.2667Z" fill="white"/>
<path d="M58.3772 67.4941C58.3551 67.9698 58.2202 68.4335 57.9837 68.847C57.7473 69.2604 57.4159 69.6117 57.017 69.8719C56.2656 70.3047 55.6521 69.9528 55.6521 69.0872C55.6751 68.6111 55.8108 68.1473 56.0481 67.7339C56.2854 67.3205 56.6175 66.9693 57.017 66.7094C57.7684 66.2766 58.3772 66.6523 58.3772 67.4941Z" fill="white"/>
<path d="M63.1805 64.7214C63.1584 65.1972 63.0236 65.6609 62.7871 66.0743C62.5506 66.4878 62.2193 66.8391 61.8203 67.0993C61.0642 67.5321 60.4554 67.1802 60.4554 66.3146C60.4773 65.8382 60.6125 65.374 60.8499 64.9604C61.0873 64.5468 61.42 64.1959 61.8203 63.9367C62.5718 63.504 63.1805 63.8559 63.1805 64.7214Z" fill="white"/>
<path d="M64.7309 127.341C64.6668 127.342 64.6037 127.357 64.5454 127.384L51.3433 134.993C51.1898 135.08 51.0623 135.207 50.9737 135.36C50.8852 135.513 50.8388 135.686 50.8392 135.863V146.292C50.8391 146.337 50.8489 146.381 50.8678 146.421C50.8861 146.465 50.9137 146.504 50.9487 146.536C50.9837 146.568 51.0252 146.592 51.0705 146.607C51.1157 146.621 51.1635 146.626 51.2106 146.62C51.2577 146.614 51.303 146.598 51.3433 146.573L64.5454 138.964C64.6979 138.876 64.8247 138.75 64.9132 138.598C65.0016 138.447 65.0486 138.274 65.0495 138.098V127.669C65.0495 127.583 65.0163 127.501 64.9568 127.44C64.8973 127.379 64.8162 127.343 64.7309 127.341Z" fill="white"/>
<path d="M63.385 137.761L53.4264 143.51L56.3655 135.854L58.4057 138.274L60.4887 135.307L63.385 137.761Z" fill="#FDC727"/>
<path opacity="0.4" d="M63.385 137.761L53.4264 143.51L56.3655 135.854L58.4057 138.274L60.4887 135.307L63.385 137.761Z" fill="white"/>
<path d="M59.9275 132.986C59.911 133.301 59.8201 133.608 59.6623 133.882C59.5044 134.156 59.284 134.388 59.0192 134.56C58.5198 134.85 58.1108 134.612 58.1108 134.032C58.1285 133.718 58.2199 133.412 58.3777 133.139C58.5355 132.866 58.7552 132.635 59.0192 132.463C59.5233 132.173 59.9275 132.406 59.9275 132.986Z" fill="#FDC727"/>
<path d="M82.4461 117.087C82.3817 117.086 82.3179 117.101 82.2606 117.13L69.0586 124.739C68.9051 124.827 68.7775 124.954 68.689 125.106C68.6004 125.259 68.554 125.433 68.5545 125.61V136.034C68.5538 136.08 68.5636 136.126 68.583 136.167C68.6013 136.211 68.629 136.251 68.664 136.283C68.6989 136.315 68.7405 136.339 68.7857 136.353C68.8309 136.368 68.8787 136.372 68.9258 136.366C68.9729 136.361 69.0182 136.345 69.0586 136.32L82.2606 128.71C82.4131 128.623 82.5399 128.497 82.6284 128.345C82.7169 128.193 82.7639 128.021 82.7647 127.845V117.415C82.7648 117.33 82.7315 117.248 82.672 117.187C82.6125 117.125 82.5315 117.09 82.4461 117.087Z" fill="white"/>
<path d="M81.105 127.507L71.1464 133.257L74.0854 125.6L76.1257 128.021L78.2087 125.053L81.105 127.507Z" fill="#FDC727"/>
<path opacity="0.4" d="M81.105 127.507L71.1464 133.257L74.0854 125.6L76.1257 128.021L78.2087 125.053L81.105 127.507Z" fill="white"/>
<path d="M77.3803 123.622C77.7349 123.008 77.7347 122.344 77.3798 122.139C77.025 121.934 76.4499 122.266 76.0953 122.88C75.7407 123.494 75.7409 124.158 76.0958 124.363C76.4506 124.568 77.0257 124.236 77.3803 123.622Z" fill="#FDC727"/>
<path d="M135.392 86.4458C135.328 86.4444 135.264 86.4591 135.207 86.4886L122.005 94.0979C121.852 94.1864 121.726 94.3134 121.638 94.4661C121.551 94.6189 121.505 94.7921 121.505 94.9682V105.393C121.505 105.438 121.513 105.483 121.529 105.526C121.547 105.57 121.575 105.609 121.61 105.641C121.645 105.673 121.686 105.697 121.732 105.712C121.777 105.726 121.825 105.731 121.872 105.725C121.919 105.719 121.964 105.703 122.005 105.678L135.211 98.069C135.364 97.9805 135.49 97.8535 135.578 97.7007C135.665 97.5479 135.711 97.3748 135.711 97.1986V86.774C135.711 86.7315 135.704 86.6893 135.688 86.6499C135.672 86.6104 135.649 86.5744 135.619 86.5439C135.59 86.5134 135.555 86.4891 135.516 86.4723C135.477 86.4554 135.435 86.4465 135.392 86.4458Z" fill="white"/>
<path d="M134.046 96.8657L124.088 102.615L127.031 94.9587L129.067 97.3793L131.15 94.4117L134.046 96.8657Z" fill="#FDC727"/>
<path opacity="0.4" d="M134.046 96.8657L124.088 102.615L127.031 94.9587L129.067 97.3793L131.15 94.4117L134.046 96.8657Z" fill="white"/>
<path d="M130.594 92.0909C130.576 92.4054 130.485 92.7114 130.327 92.9841C130.169 93.2567 129.949 93.4884 129.685 93.6603C129.181 93.9504 128.777 93.7174 128.777 93.1372C128.793 92.8217 128.884 92.5147 129.042 92.2411C129.2 91.9675 129.42 91.7352 129.685 91.563C130.185 91.2729 130.594 91.5107 130.594 92.0909Z" fill="#FDC727"/>
<path d="M100.166 106.834C100.102 106.832 100.038 106.847 99.9807 106.877L86.7787 114.486C86.6252 114.573 86.4976 114.7 86.4091 114.853C86.3205 115.006 86.2741 115.179 86.2746 115.356V125.781C86.2739 125.827 86.2837 125.872 86.3031 125.914C86.3214 125.958 86.3491 125.997 86.384 126.029C86.419 126.061 86.4606 126.085 86.5058 126.1C86.551 126.114 86.5988 126.119 86.6459 126.113C86.693 126.107 86.7383 126.091 86.7787 126.066L99.9807 118.457C100.134 118.369 100.261 118.242 100.35 118.09C100.438 117.937 100.485 117.763 100.485 117.587V107.162C100.485 107.119 100.478 107.077 100.462 107.038C100.446 106.998 100.423 106.962 100.393 106.932C100.364 106.901 100.329 106.877 100.29 106.86C100.251 106.843 100.209 106.834 100.166 106.834Z" fill="white"/>
<path d="M98.825 117.254L88.8665 123.003L91.8055 115.347L93.8457 117.767L95.9288 114.8L98.825 117.254Z" fill="#FDC727"/>
<path opacity="0.4" d="M98.825 117.254L88.8665 123.003L91.8055 115.347L93.8457 117.767L95.9288 114.8L98.825 117.254Z" fill="white"/>
<path d="M95.3675 112.479C95.351 112.794 95.2601 113.101 95.1022 113.375C94.9443 113.649 94.724 113.881 94.4591 114.053C93.9598 114.338 93.5508 114.105 93.5508 113.525C93.5684 113.21 93.6598 112.903 93.8176 112.63C93.9753 112.357 94.1951 112.124 94.4591 111.951C94.9632 111.661 95.3675 111.899 95.3675 112.479Z" fill="#FDC727"/>
<path d="M117.886 96.6137C117.822 96.6143 117.759 96.6289 117.701 96.6565L104.499 104.266C104.345 104.354 104.218 104.48 104.13 104.633C104.041 104.786 103.995 104.959 103.995 105.136V115.565C103.994 115.61 104.004 115.654 104.023 115.694C104.042 115.738 104.069 115.777 104.104 115.809C104.139 115.841 104.18 115.865 104.225 115.88C104.27 115.895 104.318 115.9 104.365 115.895C104.412 115.89 104.458 115.875 104.499 115.851L117.701 108.242C117.853 108.153 117.98 108.026 118.068 107.873C118.157 107.721 118.204 107.548 118.205 107.371V96.9228C118.199 96.8411 118.163 96.7644 118.105 96.7074C118.046 96.6503 117.968 96.617 117.886 96.6137Z" fill="white"/>
<path d="M116.545 107.015L106.586 112.764L109.525 105.112L111.566 107.528L113.649 104.565L116.545 107.015Z" fill="#FDC727"/>
<path opacity="0.4" d="M116.545 107.015L106.586 112.764L109.525 105.112L111.566 107.528L113.649 104.565L116.545 107.015Z" fill="white"/>
<path d="M113.088 102.24C113.071 102.555 112.98 102.862 112.822 103.136C112.664 103.409 112.444 103.642 112.179 103.814C111.68 104.104 111.271 103.866 111.271 103.291C111.289 102.976 111.38 102.669 111.538 102.396C111.695 102.122 111.915 101.89 112.179 101.717C112.683 101.427 113.088 101.66 113.088 102.24Z" fill="#FDC727"/>
<path d="M120.935 43.2967C120.687 43.2951 120.443 43.3522 120.221 43.4631L69.5247 72.597C68.9401 72.9345 68.4545 73.4197 68.1165 74.004C67.7784 74.5882 67.5999 75.2511 67.5986 75.9261V115.951C67.5983 116.124 67.6339 116.296 67.7033 116.455C67.775 116.618 67.8803 116.764 68.0121 116.883C68.1439 117.003 68.2994 117.093 68.4684 117.149C68.6375 117.204 68.8163 117.224 68.9934 117.206C69.1704 117.188 69.3417 117.133 69.4962 117.045L120.174 87.9059C120.759 87.5691 121.245 87.0841 121.583 86.4997C121.921 85.9152 122.1 85.252 122.1 84.5768V44.557C122.101 44.2386 121.981 43.9316 121.765 43.6978C121.549 43.464 121.252 43.3207 120.935 43.2967Z" fill="white"/>
<path d="M115.765 83.2927L77.5382 105.364L88.8332 75.9783L96.6517 85.2664L104.646 73.881L115.765 83.2927Z" fill="#FDC727"/>
<path opacity="0.4" d="M115.765 83.2927L77.5382 105.364L88.8332 75.9783L96.6517 85.2664L104.646 73.881L115.765 83.2927Z" fill="white"/>
<path d="M102.506 64.964C102.439 66.1741 102.088 67.3515 101.482 68.4008C100.875 69.4501 100.03 70.3418 99.0153 71.0038C97.113 72.1119 95.5293 71.2131 95.5293 68.9874C95.5952 67.7776 95.9452 66.6004 96.5508 65.5511C97.1564 64.5017 98.0007 63.6098 99.0153 62.9476C100.96 61.8347 102.506 62.7383 102.506 64.964Z" fill="#FDC727"/>
<path d="M134.485 62.424C136.101 59.6239 136.101 56.597 134.484 55.6633C132.866 54.7295 130.245 56.2425 128.628 59.0426C127.011 61.8427 127.012 64.8696 128.629 65.8033C130.246 66.7371 132.868 65.2241 134.485 62.424Z" fill="white"/>
<path d="M129.88 61.8965C129.795 61.8979 129.712 61.8708 129.645 61.8197C129.577 61.7685 129.528 61.6961 129.506 61.6141C129.485 61.5321 129.491 61.4451 129.524 61.367C129.557 61.289 129.616 61.2242 129.69 61.1831L133.019 59.2428C133.063 59.2174 133.111 59.201 133.161 59.1944C133.211 59.1878 133.262 59.1913 133.311 59.2046C133.359 59.2179 133.405 59.2407 133.445 59.2717C133.484 59.3028 133.518 59.3415 133.542 59.3855C133.593 59.4733 133.606 59.5774 133.581 59.6753C133.555 59.7732 133.491 59.857 133.404 59.9086L130.047 61.8442C129.996 61.8734 129.939 61.8913 129.88 61.8965Z" fill="#FDC727"/>
<path d="M131.188 63.4802C131.122 63.4802 131.056 63.4639 130.998 63.4326C130.911 63.3811 130.847 63.2973 130.822 63.1994C130.796 63.1015 130.81 62.9973 130.86 62.9095L132.715 59.6946L130.998 58.7054C130.954 58.6801 130.916 58.6465 130.886 58.6065C130.856 58.5666 130.833 58.521 130.82 58.4724C130.808 58.4238 130.805 58.3732 130.811 58.3234C130.818 58.2736 130.835 58.2257 130.86 58.1823C130.885 58.1389 130.919 58.1009 130.959 58.0704C130.999 58.04 131.044 58.0178 131.093 58.005C131.141 57.9922 131.192 57.989 131.242 57.9958C131.292 58.0026 131.34 58.0191 131.383 58.0443L133.428 59.2238C133.514 59.2761 133.577 59.3595 133.604 59.4568C133.618 59.5051 133.622 59.5559 133.616 59.6059C133.609 59.6558 133.592 59.7039 133.566 59.7469L131.521 63.29C131.487 63.3483 131.439 63.3967 131.38 63.4301C131.322 63.4635 131.255 63.4808 131.188 63.4802Z" fill="#FDC727"/>
<path d="M62.2769 100.823C62.2769 103.462 60.4221 106.672 58.1346 107.994C55.8471 109.316 53.9971 108.242 53.9971 105.616C53.9971 102.991 55.8518 99.7667 58.1346 98.4494C60.4174 97.132 62.2769 98.1831 62.2769 100.823Z" fill="white"/>
<path d="M56.4605 104.779C56.3928 104.779 56.3264 104.761 56.2679 104.727C56.2095 104.692 56.1611 104.643 56.1276 104.584C56.0775 104.497 56.0639 104.394 56.0897 104.297C56.1155 104.2 56.1788 104.117 56.2656 104.066L59.6231 102.126C59.7108 102.075 59.8152 102.06 59.9133 102.086C60.0114 102.112 60.0952 102.176 60.1463 102.264C60.1973 102.351 60.2115 102.456 60.1857 102.554C60.1598 102.652 60.096 102.736 60.0083 102.787L56.6508 104.727C56.5926 104.76 56.5273 104.778 56.4605 104.779Z" fill="#FDC727"/>
<path d="M58.5008 105.959C58.4341 105.957 58.3688 105.939 58.3106 105.906L56.2656 104.727C56.1793 104.675 56.1164 104.591 56.0897 104.494C56.0754 104.446 56.0715 104.395 56.078 104.345C56.0846 104.295 56.1015 104.247 56.1277 104.204L58.1727 100.661C58.2231 100.573 58.3064 100.509 58.404 100.483C58.5017 100.457 58.6058 100.47 58.6935 100.521C58.7811 100.571 58.8451 100.654 58.8715 100.752C58.8978 100.85 58.8842 100.954 58.8337 101.041L56.979 104.256L58.6958 105.245C58.783 105.297 58.8463 105.381 58.8721 105.479C58.8979 105.577 58.8841 105.681 58.8337 105.769C58.7993 105.826 58.7506 105.874 58.6923 105.907C58.634 105.941 58.568 105.958 58.5008 105.959Z" fill="#FDC727"/>
<path d="M110.339 150.145V181.908C110.339 182.608 109.92 183.269 109.055 183.768L63.9462 209.801C63.1731 210.218 62.3171 210.459 61.4399 210.505C61.4261 210.51 61.4109 210.51 61.3971 210.505V177.533L110.339 150.145Z" fill="#FDC727"/>
<path opacity="0.2" d="M70.4949 184.819V198.753C70.491 199.251 70.3574 199.738 70.1071 200.168C69.8569 200.597 69.4987 200.954 69.0681 201.203L63.9319 204.166C63.1588 204.583 62.3028 204.823 61.4256 204.869H61.3828V187.449C62.2748 187.407 63.146 187.164 63.9319 186.74L68.8446 183.887C69.01 183.789 69.1983 183.737 69.3904 183.735C69.5825 183.733 69.7718 183.782 69.939 183.876C70.1063 183.971 70.2458 184.108 70.3434 184.273C70.4409 184.439 70.4932 184.627 70.4949 184.819Z" fill="black"/>
<path d="M61.4398 174.033V210.529H60.0607C58.8282 210.451 57.6281 210.102 56.5461 209.506L51.5668 206.653C50.4587 206.016 49.85 205.226 49.7596 204.432V174.033H61.4398Z" fill="#FDC727"/>
<path opacity="0.3" d="M61.4398 174.033V210.529H60.0607C58.8282 210.451 57.6281 210.102 56.5461 209.506L51.5668 206.653C50.4587 206.016 49.85 205.226 49.7596 204.432V174.033H61.4398Z" fill="black"/>
<path d="M102.62 146.483C100.504 145.646 97.7931 145.669 96.1428 146.621L61.4257 166.652L51.0248 172.663C50.164 173.139 49.7407 173.824 49.7407 174.523C49.7407 175.36 50.3542 176.249 51.5574 176.939L56.5415 179.84C57.6057 180.427 58.7861 180.773 59.9989 180.853C60.4736 180.895 60.951 180.895 61.4257 180.853C62.3036 180.807 63.16 180.565 63.932 180.144L109.045 154.073C109.911 153.597 110.329 152.917 110.329 152.218V142.997L102.62 146.483Z" fill="#FDC727"/>
<path opacity="0.7" d="M102.62 146.483C100.504 145.646 97.7931 145.669 96.1428 146.621L61.4257 166.652L51.0248 172.663C50.164 173.139 49.7407 173.824 49.7407 174.523C49.7407 175.36 50.3542 176.249 51.5574 176.939L56.5415 179.84C57.6057 180.427 58.7861 180.773 59.9989 180.853C60.4736 180.895 60.951 180.895 61.4257 180.853C62.3036 180.807 63.16 180.565 63.932 180.144L109.045 154.073C109.911 153.597 110.329 152.917 110.329 152.218V142.997L102.62 146.483Z" fill="white"/>
<path d="M61.4399 165.097V180.848H60.0132C58.7959 180.772 57.6104 180.427 56.5415 179.84L51.5622 176.962C50.359 176.273 49.7455 175.384 49.7455 174.547V165.097H61.4399Z" fill="#FDC727"/>
<path opacity="0.5" d="M61.4399 165.097V180.848H60.0132C58.7959 180.772 57.6104 180.427 56.5415 179.84L51.5622 176.962C50.359 176.273 49.7455 175.384 49.7455 174.547V165.097H61.4399Z" fill="white"/>
<path d="M109.045 144.785L63.9319 170.832C62.0296 171.931 58.7005 171.783 56.5272 170.528L51.5431 167.651C49.3554 166.386 49.1177 164.469 51.0152 163.37L96.1285 137.323C98.0308 136.229 101.36 136.372 103.533 137.632L108.513 140.486C110.719 141.794 110.947 143.696 109.045 144.785Z" fill="#FDC727"/>
<path opacity="0.6" d="M109.045 144.785L63.9319 170.832C62.0296 171.931 58.7005 171.783 56.5272 170.528L51.5431 167.651C49.3554 166.386 49.1177 164.469 51.0152 163.37L96.1285 137.323C98.0308 136.229 101.36 136.372 103.533 137.632L108.513 140.486C110.719 141.794 110.947 143.696 109.045 144.785Z" fill="white"/>
<path d="M106.477 164.231L101.859 161.549C99.0391 159.823 95.0965 160.013 90.726 162.533C82.1656 167.479 75.2126 179.512 75.2126 189.408C75.2126 193.95 76.6774 197.246 79.0886 199.01C79.4837 199.302 79.9076 199.552 80.3536 199.757L84.0203 201.911L84.9192 200.404C86.9732 200.14 88.9503 199.453 90.726 198.387C99.2864 193.441 106.244 181.409 106.244 171.517C106.274 169.676 105.979 167.844 105.374 166.105L106.477 164.231Z" fill="#FDC727"/>
<path opacity="0.5" d="M106.477 164.231L101.859 161.549C99.0391 159.823 95.0965 160.013 90.726 162.533C82.1656 167.479 75.2126 179.512 75.2126 189.408C75.2126 193.95 76.6774 197.246 79.0886 199.01C79.4837 199.302 79.9076 199.552 80.3536 199.757L84.0203 201.911L84.9192 200.404C86.9732 200.14 88.9503 199.453 90.726 198.387C99.2864 193.441 106.244 181.409 106.244 171.517C106.274 169.676 105.979 167.844 105.374 166.105L106.477 164.231Z" fill="black"/>
<path d="M105.998 189.267C112.057 178.771 112.057 167.427 105.997 163.929C99.9375 160.43 90.113 166.102 84.0536 176.597C77.9942 187.093 77.9944 198.437 84.054 201.935C90.1137 205.434 99.9382 199.762 105.998 189.267Z" fill="#FDC727"/>
<path opacity="0.2" d="M105.998 189.267C112.057 178.771 112.057 167.427 105.997 163.929C99.9375 160.43 90.113 166.102 84.0536 176.597C77.9942 187.093 77.9944 198.437 84.054 201.935C90.1137 205.434 99.9382 199.762 105.998 189.267Z" fill="black"/>
<path d="M108.199 170.138L104.451 167.95C102.164 166.547 98.9582 166.704 95.4152 168.749C88.4575 172.768 82.8219 182.541 82.8219 190.564C82.8219 194.25 84.0108 196.927 85.9655 198.359C86.2886 198.594 86.6343 198.796 86.9975 198.963L89.9746 200.713L90.7022 199.491C92.3679 199.265 93.9691 198.699 95.4057 197.826C102.359 193.812 107.999 184.034 107.999 176.011C108.021 174.518 107.783 173.033 107.295 171.622L108.199 170.138Z" fill="#FDC727"/>
<path opacity="0.4" d="M108.199 170.138L104.451 167.95C102.164 166.547 98.9582 166.704 95.4152 168.749C88.4575 172.768 82.8219 182.541 82.8219 190.564C82.8219 194.25 84.0108 196.927 85.9655 198.359C86.2886 198.594 86.6343 198.796 86.9975 198.963L89.9746 200.713L90.7022 199.491C92.3679 199.265 93.9691 198.699 95.4057 197.826C102.359 193.812 107.999 184.034 107.999 176.011C108.021 174.518 107.783 173.033 107.295 171.622L108.199 170.138Z" fill="black"/>
<path d="M107.807 190.461C112.725 181.943 112.726 172.735 107.808 169.896C102.89 167.057 94.9164 171.661 89.9982 180.179C85.08 188.698 85.0797 197.905 89.9975 200.745C94.9153 203.584 102.889 198.98 107.807 190.461Z" fill="#FDC727"/>
<path opacity="0.6" d="M104.434 188.514C107.489 183.223 107.489 177.504 104.434 175.74C101.379 173.977 96.4261 176.836 93.3714 182.127C90.3168 187.418 90.3169 193.136 93.3718 194.9C96.4266 196.664 101.379 193.805 104.434 188.514Z" fill="black"/>
<path d="M98.3256 176.653C94.4687 179.207 91.3917 184.529 91.1111 189.147C92.0242 190.431 93.722 190.673 95.6671 189.546C98.5824 187.863 100.96 183.768 100.96 180.401C100.96 178.151 99.895 176.806 98.3256 176.653Z" fill="#FDC727"/>
<path opacity="0.8" d="M98.3256 176.653C94.4687 179.207 91.3917 184.529 91.1111 189.147C92.0242 190.431 93.722 190.673 95.6671 189.546C98.5824 187.863 100.96 183.768 100.96 180.401C100.96 178.151 99.895 176.806 98.3256 176.653Z" fill="black"/>
<path d="M98.2877 180.929C98.2608 181.423 98.1176 181.905 97.8697 182.334C97.6218 182.763 97.2762 183.127 96.8609 183.397C96.0762 183.873 95.4342 183.483 95.4342 182.574C95.4622 182.079 95.6058 181.598 95.8536 181.168C96.1014 180.739 96.4464 180.373 96.8609 180.101C97.6314 179.649 98.2877 180.016 98.2877 180.929Z" fill="#FAFAFA"/>
<path d="M64.8593 188.548C64.8593 188.622 64.8372 188.695 64.7957 188.757C64.7542 188.819 64.6952 188.867 64.6263 188.895C64.5573 188.923 64.4816 188.931 64.4086 188.916C64.3355 188.901 64.2686 188.864 64.2163 188.811C64.1639 188.758 64.1285 188.691 64.1146 188.618C64.1006 188.545 64.1087 188.469 64.1379 188.4C64.1671 188.332 64.216 188.274 64.2784 188.233C64.3408 188.192 64.4139 188.171 64.4884 188.172C64.5375 188.172 64.5861 188.182 64.6314 188.201C64.6768 188.219 64.7179 188.247 64.7524 188.282C64.7869 188.317 64.8141 188.359 64.8325 188.404C64.8508 188.45 64.8599 188.498 64.8593 188.548Z" fill="#FDC727"/>
<path d="M66.5524 187.52C66.5524 187.595 66.5303 187.668 66.4888 187.729C66.4473 187.791 66.3883 187.839 66.3194 187.868C66.2505 187.896 66.1747 187.903 66.1017 187.888C66.0287 187.873 65.9617 187.837 65.9094 187.784C65.857 187.731 65.8216 187.664 65.8077 187.591C65.7937 187.517 65.8018 187.442 65.831 187.373C65.8602 187.305 65.9091 187.246 65.9715 187.206C66.0339 187.165 66.107 187.144 66.1815 187.145C66.2306 187.145 66.2792 187.154 66.3246 187.173C66.3699 187.192 66.411 187.22 66.4455 187.255C66.48 187.29 66.5072 187.331 66.5256 187.377C66.5439 187.422 66.5531 187.471 66.5524 187.52Z" fill="#FDC727"/>
<path d="M68.2454 186.56C68.2463 186.634 68.225 186.708 68.1841 186.77C68.1432 186.833 68.0845 186.882 68.0157 186.911C67.9468 186.94 67.8709 186.947 67.7976 186.933C67.7243 186.919 67.6569 186.883 67.6041 186.83C67.5512 186.777 67.5154 186.71 67.501 186.636C67.4867 186.563 67.4945 186.487 67.5235 186.418C67.5526 186.35 67.6014 186.291 67.664 186.25C67.7265 186.209 67.7997 186.188 67.8744 186.189C67.9728 186.189 68.0672 186.228 68.1368 186.297C68.2063 186.367 68.2454 186.461 68.2454 186.56Z" fill="#FDC727"/>
<path d="M64.4884 191.059C64.6933 191.059 64.8593 190.893 64.8593 190.688C64.8593 190.483 64.6933 190.317 64.4884 190.317C64.2835 190.317 64.1174 190.483 64.1174 190.688C64.1174 190.893 64.2835 191.059 64.4884 191.059Z" fill="#FDC727"/>
<path d="M66.5524 189.66C66.5533 189.735 66.532 189.808 66.4911 189.871C66.4502 189.933 66.3915 189.982 66.3227 190.011C66.2538 190.04 66.1779 190.048 66.1046 190.034C66.0313 190.019 65.9639 189.984 65.9111 189.931C65.8582 189.878 65.8224 189.811 65.808 189.737C65.7937 189.664 65.8015 189.588 65.8305 189.519C65.8596 189.45 65.9085 189.392 65.971 189.351C66.0335 189.31 66.1068 189.288 66.1815 189.289C66.2798 189.289 66.3742 189.329 66.4438 189.398C66.5133 189.468 66.5524 189.562 66.5524 189.66Z" fill="#FDC727"/>
<path d="M68.2454 188.705C68.2454 188.779 68.2233 188.852 68.1818 188.914C68.1403 188.976 68.0813 189.024 68.0124 189.052C67.9435 189.08 67.8677 189.087 67.7947 189.073C67.7217 189.058 67.6547 189.021 67.6024 188.968C67.55 188.915 67.5146 188.848 67.5007 188.775C67.4867 188.702 67.4948 188.626 67.524 188.557C67.5532 188.489 67.6021 188.43 67.6645 188.39C67.7269 188.349 67.8 188.328 67.8745 188.329C67.9236 188.329 67.9722 188.339 68.0175 188.357C68.0629 188.376 68.104 188.404 68.1385 188.439C68.173 188.474 68.2002 188.516 68.2186 188.561C68.2369 188.607 68.2461 188.655 68.2454 188.705Z" fill="#FDC727"/>
<path d="M64.4884 193.199C64.6933 193.199 64.8593 193.033 64.8593 192.828C64.8593 192.623 64.6933 192.457 64.4884 192.457C64.2835 192.457 64.1174 192.623 64.1174 192.828C64.1174 193.033 64.2835 193.199 64.4884 193.199Z" fill="#FDC727"/>
<path d="M66.1814 192.171C66.3862 192.171 66.5523 192.005 66.5523 191.8C66.5523 191.596 66.3862 191.43 66.1814 191.43C65.9765 191.43 65.8104 191.596 65.8104 191.8C65.8104 192.005 65.9765 192.171 66.1814 192.171Z" fill="#FDC727"/>
<path d="M68.2454 190.845C68.2463 190.919 68.225 190.993 68.1841 191.055C68.1432 191.118 68.0845 191.166 68.0157 191.195C67.9468 191.225 67.8709 191.232 67.7976 191.218C67.7243 191.204 67.6569 191.168 67.6041 191.115C67.5512 191.062 67.5154 190.995 67.501 190.921C67.4867 190.848 67.4945 190.772 67.5235 190.703C67.5526 190.634 67.6014 190.576 67.664 190.535C67.7265 190.494 67.7997 190.473 67.8744 190.474C67.9728 190.474 68.0672 190.513 68.1368 190.582C68.2063 190.652 68.2454 190.746 68.2454 190.845Z" fill="#FDC727"/>
<path d="M64.4884 195.343C64.6933 195.343 64.8593 195.177 64.8593 194.973C64.8593 194.768 64.6933 194.602 64.4884 194.602C64.2835 194.602 64.1174 194.768 64.1174 194.973C64.1174 195.177 64.2835 195.343 64.4884 195.343Z" fill="#FDC727"/>
<path d="M66.1814 194.316C66.3862 194.316 66.5523 194.15 66.5523 193.945C66.5523 193.74 66.3862 193.574 66.1814 193.574C65.9765 193.574 65.8104 193.74 65.8104 193.945C65.8104 194.15 65.9765 194.316 66.1814 194.316Z" fill="#FDC727"/>
<path d="M68.2454 192.985C68.2463 193.059 68.225 193.133 68.1841 193.195C68.1432 193.258 68.0845 193.307 68.0157 193.336C67.9468 193.365 67.8709 193.372 67.7976 193.358C67.7243 193.344 67.6569 193.308 67.6041 193.255C67.5512 193.202 67.5154 193.135 67.501 193.062C67.4867 192.988 67.4945 192.912 67.5235 192.843C67.5526 192.775 67.6014 192.716 67.664 192.675C67.7265 192.634 67.7997 192.613 67.8744 192.614C67.9728 192.614 68.0672 192.653 68.1368 192.722C68.2063 192.792 68.2454 192.886 68.2454 192.985Z" fill="#FDC727"/>
<path d="M64.8593 197.113C64.8489 197.204 64.8051 197.289 64.7362 197.351C64.6674 197.412 64.5783 197.446 64.4859 197.446C64.3936 197.446 64.3045 197.412 64.2356 197.351C64.1668 197.289 64.123 197.204 64.1126 197.113C64.1067 197.06 64.1119 197.007 64.1279 196.956C64.144 196.906 64.1705 196.86 64.2057 196.82C64.241 196.781 64.2842 196.749 64.3325 196.728C64.3807 196.706 64.433 196.695 64.4859 196.695C64.5388 196.695 64.5911 196.706 64.6394 196.728C64.6877 196.749 64.7309 196.781 64.7661 196.82C64.8014 196.86 64.8279 196.906 64.8439 196.956C64.86 197.007 64.8652 197.06 64.8593 197.113Z" fill="#FDC727"/>
<path d="M66.1814 196.456C66.3862 196.456 66.5523 196.29 66.5523 196.085C66.5523 195.881 66.3862 195.714 66.1814 195.714C65.9765 195.714 65.8104 195.881 65.8104 196.085C65.8104 196.29 65.9765 196.456 66.1814 196.456Z" fill="#FDC727"/>
<path d="M68.2454 195.129C68.2454 195.204 68.2233 195.277 68.1818 195.339C68.1403 195.401 68.0813 195.449 68.0124 195.477C67.9435 195.505 67.8677 195.512 67.7947 195.498C67.7217 195.483 67.6547 195.446 67.6024 195.393C67.55 195.34 67.5146 195.273 67.5007 195.2C67.4867 195.127 67.4948 195.051 67.524 194.982C67.5532 194.914 67.6021 194.855 67.6645 194.815C67.7269 194.774 67.8 194.753 67.8745 194.754C67.9236 194.754 67.9722 194.764 68.0175 194.782C68.0629 194.801 68.104 194.829 68.1385 194.864C68.173 194.899 68.2002 194.941 68.2186 194.986C68.2369 195.032 68.2461 195.08 68.2454 195.129Z" fill="#FDC727"/>
<path d="M64.4884 199.624C64.6933 199.624 64.8593 199.458 64.8593 199.253C64.8593 199.048 64.6933 198.882 64.4884 198.882C64.2835 198.882 64.1174 199.048 64.1174 199.253C64.1174 199.458 64.2835 199.624 64.4884 199.624Z" fill="#FDC727"/>
<path d="M66.5524 198.226C66.5533 198.3 66.532 198.374 66.4911 198.436C66.4502 198.499 66.3915 198.547 66.3227 198.576C66.2538 198.606 66.1779 198.613 66.1046 198.599C66.0313 198.585 65.9639 198.549 65.9111 198.496C65.8582 198.443 65.8224 198.376 65.808 198.302C65.7937 198.229 65.8015 198.153 65.8305 198.084C65.8596 198.015 65.9085 197.957 65.971 197.916C66.0335 197.875 66.1068 197.854 66.1815 197.855C66.2798 197.855 66.3742 197.894 66.4438 197.963C66.5133 198.033 66.5524 198.127 66.5524 198.226Z" fill="#FDC727"/>
<path d="M68.2454 197.27C68.2463 197.344 68.225 197.418 68.1841 197.48C68.1432 197.543 68.0845 197.592 68.0157 197.621C67.9468 197.65 67.8709 197.657 67.7976 197.643C67.7243 197.629 67.6569 197.593 67.6041 197.54C67.5512 197.487 67.5154 197.42 67.501 197.346C67.4867 197.273 67.4945 197.197 67.5235 197.128C67.5526 197.06 67.6014 197.001 67.664 196.96C67.7265 196.919 67.7997 196.898 67.8744 196.899C67.9728 196.899 68.0672 196.938 68.1368 197.007C68.2063 197.077 68.2454 197.171 68.2454 197.27Z" fill="#FDC727"/>
<path d="M64.4884 201.769C64.6933 201.769 64.8593 201.602 64.8593 201.398C64.8593 201.193 64.6933 201.027 64.4884 201.027C64.2835 201.027 64.1174 201.193 64.1174 201.398C64.1174 201.602 64.2835 201.769 64.4884 201.769Z" fill="#FDC727"/>
<path d="M66.5524 200.37C66.5524 200.445 66.5303 200.518 66.4888 200.58C66.4473 200.641 66.3883 200.69 66.3194 200.718C66.2505 200.746 66.1747 200.753 66.1017 200.738C66.0287 200.724 65.9617 200.687 65.9094 200.634C65.857 200.581 65.8216 200.514 65.8077 200.441C65.7937 200.368 65.8018 200.292 65.831 200.223C65.8602 200.155 65.9091 200.096 65.9715 200.056C66.0339 200.015 66.107 199.994 66.1815 199.995C66.2306 199.995 66.2792 200.004 66.3246 200.023C66.3699 200.042 66.411 200.07 66.4455 200.105C66.48 200.14 66.5072 200.181 66.5256 200.227C66.5439 200.273 66.5531 200.321 66.5524 200.37Z" fill="#FDC727"/>
<path d="M68.2454 199.41C68.2463 199.484 68.225 199.558 68.1841 199.62C68.1432 199.683 68.0845 199.732 68.0157 199.761C67.9468 199.79 67.8709 199.797 67.7976 199.783C67.7243 199.769 67.6569 199.733 67.6041 199.68C67.5512 199.627 67.5154 199.56 67.501 199.487C67.4867 199.413 67.4945 199.337 67.5235 199.268C67.5526 199.2 67.6014 199.141 67.664 199.1C67.7265 199.059 67.7997 199.038 67.8744 199.039C67.9728 199.039 68.0672 199.078 68.1368 199.147C68.2063 199.217 68.2454 199.311 68.2454 199.41Z" fill="#FDC727"/>
<path d="M92.0385 148.956L90.5214 149.189L86.0367 146.597L78.3371 151.044L73.5813 151.766V153.778L78.4037 156.56C79.8304 157.383 81.9848 157.473 83.2213 156.76L91.1824 152.161C91.4089 152.059 91.6049 151.9 91.7508 151.699C91.8968 151.498 91.9878 151.262 92.0147 151.015L92.0385 148.956Z" fill="#FDC727"/>
<path opacity="0.2" d="M92.0385 148.956L90.5214 149.189L86.0367 146.597L78.3371 151.044L73.5813 151.766V153.778L78.4037 156.56C79.8304 157.383 81.9848 157.473 83.2213 156.76L91.1824 152.161C91.4089 152.059 91.6049 151.9 91.7508 151.699C91.8968 151.498 91.9878 151.262 92.0147 151.015L92.0385 148.956Z" fill="black"/>
<path d="M91.2016 150.149L83.2404 154.748C82.0039 155.462 79.8496 155.371 78.4228 154.548L73.6005 151.781L86.0368 144.599L90.8592 147.382C92.2859 148.19 92.4381 149.436 91.2016 150.149Z" fill="#FDC727"/>
<path d="M88.5525 147.301L87.4682 147.467L84.258 145.612L78.7461 148.794L75.36 149.312V150.739L78.8079 152.727C79.3307 153.021 79.9156 153.187 80.5148 153.212C81.114 153.237 81.7106 153.119 82.2559 152.87L87.9628 149.583C88.1241 149.509 88.2635 149.394 88.3676 149.25C88.4717 149.106 88.537 148.937 88.5573 148.761L88.5525 147.301Z" fill="#FDC727"/>
<path opacity="0.2" d="M88.5525 147.301L87.4682 147.467L84.258 145.612L78.7461 148.794L75.36 149.312V150.739L78.8079 152.727C79.3307 153.021 79.9156 153.187 80.5148 153.212C81.114 153.237 81.7106 153.119 82.2559 152.87L87.9628 149.583C88.1241 149.509 88.2635 149.394 88.3676 149.25C88.4717 149.106 88.537 148.937 88.5573 148.761L88.5525 147.301Z" fill="black"/>
<path d="M87.9533 148.157L82.2463 151.443C81.7011 151.693 81.1045 151.81 80.5053 151.785C79.9061 151.76 79.3212 151.594 78.7984 151.3L75.3505 149.312L84.258 144.171L87.706 146.164C88.7285 146.754 88.8378 147.643 87.9533 148.157Z" fill="#FDC727"/>
<path d="M66.833 163.865C66.8378 163.794 66.8378 163.722 66.833 163.651V160.612H56.903V163.894C56.9553 164.583 57.4356 165.259 58.3297 165.796C59.4192 166.347 60.6232 166.634 61.8442 166.634C63.0653 166.634 64.2692 166.347 65.3587 165.796C66.2718 165.268 66.7474 164.593 66.7855 163.894L66.833 163.865Z" fill="#FDC727"/>
<path opacity="0.2" d="M66.833 163.865C66.8378 163.794 66.8378 163.722 66.833 163.651V160.612H56.903V163.894C56.9553 164.583 57.4356 165.259 58.3297 165.796C59.4192 166.347 60.6232 166.634 61.8442 166.634C63.0653 166.634 64.2692 166.347 65.3587 165.796C66.2718 165.268 66.7474 164.593 66.7855 163.894L66.833 163.865Z" fill="black"/>
<path d="M65.3873 158.581C67.3276 159.704 67.3276 161.52 65.3873 162.638C64.2984 163.192 63.0942 163.48 61.8727 163.48C60.6513 163.48 59.4471 163.192 58.3582 162.638C56.4179 161.52 56.4179 159.704 58.3582 158.581C59.4471 158.028 60.6513 157.74 61.8727 157.74C63.0942 157.74 64.2984 158.028 65.3873 158.581Z" fill="#FDC727"/>
<path d="M94.8349 143.577V142.269H90.8448V143.591C90.8729 143.755 90.9404 143.91 91.0414 144.043C91.1425 144.175 91.2741 144.282 91.4251 144.352C91.8633 144.572 92.347 144.687 92.8375 144.687C93.328 144.687 93.8118 144.572 94.25 144.352C94.4005 144.281 94.5317 144.175 94.6326 144.042C94.7336 143.91 94.8013 143.755 94.8302 143.591L94.8349 143.577Z" fill="#FDC727"/>
<path opacity="0.2" d="M94.8349 143.577V142.269H90.8448V143.591C90.8729 143.755 90.9404 143.91 91.0414 144.043C91.1425 144.175 91.2741 144.282 91.4251 144.352C91.8633 144.572 92.347 144.687 92.8375 144.687C93.328 144.687 93.8118 144.572 94.25 144.352C94.4005 144.281 94.5317 144.175 94.6326 144.042C94.7336 143.91 94.8013 143.755 94.8302 143.591L94.8349 143.577Z" fill="black"/>
<path d="M94.2547 141.456C95.0347 141.908 95.0347 142.635 94.2547 143.087C93.8165 143.307 93.3328 143.422 92.8423 143.422C92.3517 143.422 91.868 143.307 91.4298 143.087C90.6499 142.611 90.6499 141.908 91.4298 141.456C91.8674 141.233 92.3513 141.117 92.8423 141.117C93.3332 141.117 93.8172 141.233 94.2547 141.456Z" fill="#FDC727"/>
<path d="M103.838 143.22C103.842 143.162 103.842 143.103 103.838 143.044V140.552H95.7004V143.244C95.7563 143.579 95.8934 143.896 96.0998 144.166C96.3062 144.437 96.5757 144.652 96.8846 144.794C97.7771 145.247 98.7636 145.483 99.7642 145.483C100.765 145.483 101.751 145.247 102.644 144.794C102.952 144.651 103.22 144.435 103.425 144.165C103.631 143.895 103.768 143.579 103.823 143.244L103.838 143.22Z" fill="#FDC727"/>
<path opacity="0.2" d="M103.838 143.22C103.842 143.162 103.842 143.103 103.838 143.044V140.552H95.7004V143.244C95.7563 143.579 95.8934 143.896 96.0998 144.166C96.3062 144.437 96.5757 144.652 96.8846 144.794C97.7771 145.247 98.7636 145.483 99.7642 145.483C100.765 145.483 101.751 145.247 102.644 144.794C102.952 144.651 103.22 144.435 103.425 144.165C103.631 143.895 103.768 143.579 103.823 143.244L103.838 143.22Z" fill="black"/>
<path d="M96.4947 141.147V144.519C96.384 144.441 96.2834 144.35 96.1951 144.247V141.147H96.4947Z" fill="#FDC727"/>
<path d="M97.6313 141.147V145.123C97.5288 145.09 97.4286 145.05 97.3317 145.004V141.142L97.6313 141.147Z" fill="#FDC727"/>
<path d="M98.7774 141.147V145.403C98.6765 145.394 98.5764 145.378 98.4778 145.356V141.147H98.7774Z" fill="#FDC727"/>
<path d="M99.9189 141.147V145.474H99.624V141.147H99.9189Z" fill="#FDC727"/>
<path d="M101.065 141.147V145.356C100.968 145.378 100.869 145.394 100.77 145.403V141.147H101.065Z" fill="#FDC727"/>
<path d="M102.206 141.147V145.008C102.111 145.055 102.012 145.095 101.911 145.127V141.147H102.206Z" fill="#FDC727"/>
<path d="M103.338 141.147V144.252C103.249 144.349 103.15 144.437 103.043 144.514V141.147H103.338Z" fill="#FDC727"/>
<path d="M102.653 138.888C104.242 139.806 104.242 141.294 102.653 142.217C101.761 142.669 100.774 142.905 99.7739 142.905C98.7732 142.905 97.7867 142.669 96.8942 142.217C95.301 141.294 95.301 139.806 96.8942 138.888C97.7867 138.435 98.7732 138.199 99.7739 138.199C100.774 138.199 101.761 138.435 102.653 138.888Z" fill="#FDC727"/>
<path opacity="0.2" d="M99.7715 141.575C100.751 141.575 101.545 141.117 101.545 140.552C101.545 139.988 100.751 139.53 99.7715 139.53C98.7918 139.53 97.9976 139.988 97.9976 140.552C97.9976 141.117 98.7918 141.575 99.7715 141.575Z" fill="black"/>
<path d="M193.099 189.218C193.099 189.218 195.909 187.649 196.266 185.889C196.623 184.129 193.532 180.101 193.532 180.101C193.532 180.101 191.225 181.423 193.099 189.218Z" fill="#FDC727"/>
<path opacity="0.2" d="M193.099 189.218C193.099 189.218 195.909 187.649 196.266 185.889C196.623 184.129 193.532 180.101 193.532 180.101C193.532 180.101 191.225 181.423 193.099 189.218Z" fill="black"/>
<path d="M158.681 194.644L162.785 192.224L163.323 188.12L161.91 187.787L158.681 194.644Z" fill="#FDC727"/>
<path opacity="0.3" d="M158.681 194.644L162.785 192.224L163.323 188.12L161.91 187.787L158.681 194.644Z" fill="black"/>
<path d="M182.964 171.037L186.797 177.157L189.356 185.632C189.356 185.632 194.069 185.047 191.101 174.166L188.885 167.603L182.964 171.037Z" fill="#945959"/>
<path d="M157.873 173.324L158.681 183.078L155.856 190.54C155.856 190.54 157.283 194.04 161.711 186.64C164.06 182.717 164.141 181.937 164.141 181.937L165.092 173.324H157.873Z" fill="#945959"/>
<path d="M161.53 78.3324L160.103 81.1859C160.082 81.2273 160.071 81.2726 160.069 81.3189C160.067 81.3652 160.075 81.4113 160.093 81.4541C160.111 81.4969 160.137 81.5355 160.171 81.5672C160.205 81.5989 160.245 81.6229 160.289 81.6377L162.001 82.2084L161.53 78.3324Z" fill="#703838"/>
<path d="M163.527 73.5481C163.527 73.5481 161.359 74.7371 161.359 81.4808C161.359 85.195 161.615 87.5587 163.546 87.416C165.477 87.2733 171.027 86.5409 171.027 86.5409V73.5481H163.527Z" fill="#945959"/>
<path d="M163.527 87.416C164.203 87.3637 165.33 87.24 166.504 87.1021V86.4125C165.445 86.8684 164.338 87.2035 163.204 87.4112C163.311 87.4224 163.42 87.424 163.527 87.416Z" fill="#703838"/>
<path d="M166.176 86.1224V90.3645H171.974V84.4056L166.176 86.1224Z" fill="#FFA8A7"/>
<path d="M176.102 101.013L179.868 108.75L177.053 112.45L179.007 119.061L185.061 111.927C185.589 111.308 185.939 110.557 186.074 109.755C186.209 108.953 186.123 108.129 185.827 107.371C184.163 103.091 180.843 94.6495 179.944 93.1562C178.736 91.1397 177.291 90.0649 175.122 90.1315C172.953 90.1981 176.102 101.013 176.102 101.013Z" fill="#945959"/>
<path d="M177.918 113.734C178.793 116.36 180.7 120.05 180.62 132.463C180.567 141.137 180.648 146.017 180.7 148.157C180.718 148.926 181.019 149.661 181.547 150.221C182.465 151.172 184.039 153.226 185.518 157.107C186.841 160.537 187.965 164.039 188.885 167.598C188.885 167.598 187.806 171.099 182.964 171.032L170.87 151.567C170.384 150.788 170.071 149.914 169.952 149.003L166.771 124.825V114.938L177.918 113.734Z" fill="#37474F"/>
<path d="M169.306 144.214L172.673 132.158C172.673 132.158 177.4 127.35 175.716 119.061L168.583 128.054L168.944 141.784L169.306 144.214Z" fill="#263238"/>
<path d="M158.21 114.4C158.011 118.3 155.89 142.583 156.194 149.645C156.498 156.708 157.873 173.324 157.873 173.324C157.873 173.324 162.448 175.227 165.073 173.324C165.073 173.324 166.181 166.78 166.904 161.597C167.346 158.921 167.254 156.185 166.633 153.545C166.378 152.579 166.378 151.563 166.633 150.596L171.783 130.812C171.783 130.812 176.235 127.688 176.235 119.061V112.584L158.21 114.4Z" fill="#37474F"/>
<path d="M170.59 87.3875L161.359 90.7878C161.359 90.7878 157.017 94.5544 157.017 101.755C157.017 103.771 158.971 105.588 158.971 105.588C158.971 105.588 158.296 111.908 158.229 114.4C158.229 114.4 162.985 117.729 171.807 116.417C174.979 115.941 177.937 113.725 177.937 113.725C177.937 113.725 176.591 108.142 176.392 107.604C176.192 107.067 178.294 100.542 178.294 95.3629L170.59 87.3875Z" fill="#FDC727"/>
<path d="M162.4 75.051C162.4 75.051 162.771 78.3182 164.854 79.2075C164.854 79.2075 163.204 81.4713 165.658 82.4652V80.7151L166.685 82.7173C166.685 82.7173 163.794 94.4212 168.806 94.4212C169.674 94.4353 170.518 94.1365 171.184 93.5795C171.184 93.5795 171.955 96.6422 176.596 96.6422C181.238 96.6422 182.113 92.1004 182.113 92.1004C182.113 92.1004 179.022 93.0516 179.022 89.8129C179.022 86.5742 178.784 76.2256 178.617 74.6467C178.304 72.9929 177.462 71.4854 176.219 70.3508C174.975 69.2163 173.397 68.5159 171.721 68.3548C168.107 67.9268 163.413 67.9554 160.721 71.6839C158.03 75.4124 161.887 76.4397 161.887 76.4397C161.887 76.4397 161.948 76.335 162.4 75.051Z" fill="#263238"/>
<path d="M165.639 80.7151C165.639 80.7151 165.482 77.8616 167.693 78.0804C170.233 78.3324 169.425 82.9218 166.328 82.9218L165.639 80.7151Z" fill="#945959"/>
<path d="M161.359 90.7878C155.714 92.5808 144.98 98.2544 144.98 98.2544L135.159 89.5799L131.473 93.5462C134.513 97.6153 137.972 101.353 141.793 104.698C142.403 105.235 143.149 105.593 143.949 105.731C144.749 105.87 145.571 105.784 146.326 105.483C148.295 104.698 151.081 103.609 153.164 102.829C156.798 101.484 164.464 99.6003 164.464 95.4295C164.464 91.2586 161.359 90.7878 161.359 90.7878Z" fill="#945959"/>
<path d="M164.141 181.937C163.436 182.052 162.768 182.33 162.189 182.75C161.611 183.169 161.14 183.718 160.812 184.353C159.732 186.507 157.716 192.561 155.832 190.535L156.47 188.847C156.47 188.847 148.946 190.497 150.763 192.466C152.579 194.435 158.21 195.32 158.681 194.64C159.152 193.96 161.711 189.123 161.711 189.123L163.137 195.581C163.342 195.76 163.605 195.858 163.877 195.858C164.149 195.858 164.411 195.76 164.616 195.581C164.616 195.581 166.443 183.216 164.141 181.937Z" fill="#FDC727"/>
<path d="M189.356 185.632C189.356 185.632 191.101 184.89 190.835 182.608C190.569 180.325 188.819 175.764 191.101 174.166C192.114 173.458 194.364 176.544 196.266 180.254C198.168 183.963 198.706 185.009 198.706 185.009C198.706 185.009 198.492 185.994 197.626 185.96L193.455 181.656C193.186 182.971 193.233 184.33 193.593 185.623C194.197 187.639 194.278 188.814 192.081 189.794C189.884 190.773 183.868 192.11 187.083 188.043C188.681 186.022 189.356 185.632 189.356 185.632Z" fill="#FDC727"/>
<path d="M135.235 90.1506C135.466 88.7811 135.784 87.4277 136.186 86.0986C136.629 84.9572 136.824 83.9871 135.739 84.4198C134.655 84.8526 133.799 86.7977 133.723 87.045C133.723 87.045 128.211 80.5201 127.45 80.5867C126.689 80.6533 126.789 81.5806 128.254 83.5733L129.714 85.5707C129.714 85.5707 125.857 87.3922 126.271 89.7511C126.684 92.1099 131.45 93.5557 131.45 93.5557L135.235 90.1506Z" fill="#945959"/>
</svg>
